<svg xmlns="http://www.w3.org/2000/svg" xmlns:xlink="http://www.w3.org/1999/xlink" contentStyleType="text/css" data-diagram-type="DESCRIPTION" height="385px" preserveAspectRatio="none" style="width:1058px;height:385px;background:#FFFFFF;" version="1.1" viewBox="0 0 1058 385" width="1058px" zoomAndPan="magnify"><?plantuml 1.2026.4beta2?><defs/><g><!--cluster API--><g class="cluster" data-qualified-name="API" data-source-line="17" id="ent0002"><path d="M8.5,157 L35.8047,157 A3.75,3.75 0 0 1 38.3047,159.5 L45.3047,179.2969 L162.7,179.2969 A2.5,2.5 0 0 1 165.2,181.7969 L165.2,241.5 A2.5,2.5 0 0 1 162.7,244 L8.5,244 A2.5,2.5 0 0 1 6,241.5 L6,159.5 A2.5,2.5 0 0 1 8.5,157" fill="#FADCE8" style="stroke:#000000;stroke-width:1;"/><line style="stroke:#000000;stroke-width:1;" x1="6" x2="45.3047" y1="179.2969" y2="179.2969"/><text fill="#000000" font-family="sans-serif" font-size="14" font-weight="700" lengthAdjust="spacing" textLength="26.3047" x="10" y="171.9951">API</text></g><!--cluster ETL--><g class="cluster" data-qualified-name="ETL" data-source-line="21" id="ent0004"><path d="M282.7,157 L311.7342,157 A3.75,3.75 0 0 1 314.2342,159.5 L321.2342,179.2969 L380.88,179.2969 A2.5,2.5 0 0 1 383.38,181.7969 L383.38,241.5 A2.5,2.5 0 0 1 380.88,244 L282.7,244 A2.5,2.5 0 0 1 280.2,241.5 L280.2,159.5 A2.5,2.5 0 0 1 282.7,157" fill="#EAF3F2" style="stroke:#000000;stroke-width:1;"/><line style="stroke:#000000;stroke-width:1;" x1="280.2" x2="321.2342" y1="179.2969" y2="179.2969"/><text fill="#000000" font-family="sans-serif" font-size="14" font-weight="700" lengthAdjust="spacing" textLength="28.0342" x="284.2" y="171.9951">ETL</text></g><!--cluster DWH--><g class="cluster" data-qualified-name="DWH" data-source-line="25" id="ent0006"><path d="M585.88,6 L625.6603,6 A3.75,3.75 0 0 1 628.1603,8.5 L635.1603,28.2969 L794.15,28.2969 A2.5,2.5 0 0 1 796.65,30.7969 L796.65,244.5 A2.5,2.5 0 0 1 794.15,247 L585.88,247 A2.5,2.5 0 0 1 583.38,244.5 L583.38,8.5 A2.5,2.5 0 0 1 585.88,6" fill="#D7E8FF" style="stroke:#000000;stroke-width:1;"/><line style="stroke:#000000;stroke-width:1;" x1="583.38" x2="635.1603" y1="28.2969" y2="28.2969"/><text fill="#000000" font-family="sans-serif" font-size="14" font-weight="700" lengthAdjust="spacing" textLength="38.7803" x="587.38" y="20.9951">DWH</text></g><!--cluster PostgreSQL\nmodel--><g class="cluster" data-qualified-name="DWH.PostgreSQL.nmodel" data-source-line="26" id="ent0007"><path d="M609.88,49 L703.1105,49 A3.75,3.75 0 0 1 705.6105,51.5 L712.6105,87.5938 L770.15,87.5938 A2.5,2.5 0 0 1 772.65,90.0938 L772.65,220.5 A2.5,2.5 0 0 1 770.15,223 L609.88,223 A2.5,2.5 0 0 1 607.38,220.5 L607.38,51.5 A2.5,2.5 0 0 1 609.88,49" fill="#FFFFD8" style="stroke:#000000;stroke-width:1;"/><line style="stroke:#000000;stroke-width:1;" x1="607.38" x2="712.6105" y1="87.5938" y2="87.5938"/><text fill="#000000" font-family="sans-serif" font-size="14" font-weight="700" lengthAdjust="spacing" textLength="92.2305" x="611.38" y="63.9951">PostgreSQL</text><text fill="#000000" font-family="sans-serif" font-size="14" font-weight="700" lengthAdjust="spacing" textLength="48.5215" x="633.2345" y="80.292">model</text></g><!--cluster Storage--><g class="cluster" data-qualified-name="Storage" data-source-line="32" id="ent0010"><path d="M653.62,271 L716.8817,271 A3.75,3.75 0 0 1 719.3817,273.5 L726.3817,293.2969 L726.41,293.2969 A2.5,2.5 0 0 1 728.91,295.7969 L728.91,355.5 A2.5,2.5 0 0 1 726.41,358 L653.62,358 A2.5,2.5 0 0 1 651.12,355.5 L651.12,273.5 A2.5,2.5 0 0 1 653.62,271" fill="#FFF7CC" style="stroke:#000000;stroke-width:1;"/><line style="stroke:#000000;stroke-width:1;" x1="651.12" x2="726.3817" y1="293.2969" y2="293.2969"/><text fill="#000000" font-family="sans-serif" font-size="14" font-weight="700" lengthAdjust="spacing" textLength="62.2617" x="655.12" y="285.9951">Storage</text></g><!--cluster BI--><g class="cluster" data-qualified-name="BI" data-source-line="36" id="ent0012"><path d="M925.15,136 L942.0299,136 A3.75,3.75 0 0 1 944.5299,138.5 L951.5299,158.2969 L1041,158.2969 A2.5,2.5 0 0 1 1043.5,160.7969 L1043.5,220.5 A2.5,2.5 0 0 1 1041,223 L925.15,223 A2.5,2.5 0 0 1 922.65,220.5 L922.65,138.5 A2.5,2.5 0 0 1 925.15,136" fill="#CDB7FF" style="stroke:#000000;stroke-width:1;"/><line style="stroke:#000000;stroke-width:1;" x1="922.65" x2="951.5299" y1="158.2969" y2="158.2969"/><text fill="#000000" font-family="sans-serif" font-size="14" font-weight="700" lengthAdjust="spacing" textLength="15.8799" x="926.65" y="150.9951">BI</text></g><!--entity earthquake_api--><g class="entity" data-qualified-name="API.earthquake_api" data-source-line="18" id="ent0003"><rect fill="#F4F0FF" height="36.2969" style="stroke:#000000;stroke-width:1;" width="127.2012" x="22" y="191.85"/><text fill="#000000" font-family="sans-serif" font-size="14" lengthAdjust="spacing" textLength="107.2012" x="32" y="214.8451">Earthquake API</text></g><!--entity airflow--><g class="entity" data-qualified-name="ETL.airflow" data-source-line="22" id="ent0005"><rect fill="#F4F0FF" height="36.2969" style="stroke:#000000;stroke-width:1;" width="71.1807" x="296.2" y="191.85"/><text fill="#000000" font-family="sans-serif" font-size="14" lengthAdjust="spacing" textLength="51.1807" x="306.2" y="214.8451">AirFlow</text></g><!--entity ods--><g class="entity" data-qualified-name="DWH.PostgreSQL.nmodel.ods" data-source-line="27" id="ent0008"><rect fill="#F4F0FF" height="36.2969" style="stroke:#000000;stroke-width:1;" width="94.1699" x="642.93" y="99.85"/><text fill="#000000" font-family="sans-serif" font-size="14" lengthAdjust="spacing" textLength="74.1699" x="652.93" y="122.8451">ODS Layer</text></g><!--entity dm--><g class="entity" data-qualified-name="DWH.PostgreSQL.nmodel.dm" data-source-line="28" id="ent0009"><rect fill="#F4F0FF" height="36.2969" style="stroke:#000000;stroke-width:1;" width="133.2646" x="623.38" y="170.85"/><text fill="#000000" font-family="sans-serif" font-size="14" lengthAdjust="spacing" textLength="113.2646" x="633.38" y="193.8451">Data Mart Layer</text></g><!--entity s3--><g class="entity" data-qualified-name="Storage.s3" data-source-line="33" id="ent0011"><rect fill="#F4F0FF" height="36.2969" style="stroke:#000000;stroke-width:1;" width="37.7939" x="671.12" y="305.85"/><text fill="#000000" font-family="sans-serif" font-size="14" lengthAdjust="spacing" textLength="17.7939" x="681.12" y="328.8451">S3</text></g><!--entity metabase--><g class="entity" data-qualified-name="BI.metabase" data-source-line="37" id="ent0013"><rect fill="#F4F0FF" height="36.2969" style="stroke:#000000;stroke-width:1;" width="88.8516" x="938.65" y="170.85"/><text fill="#000000" font-family="sans-serif" font-size="14" lengthAdjust="spacing" textLength="68.8516" x="948.65" y="193.8451">MetaBase</text></g><!--link earthquake_api to airflow--><g class="link" data-entity-1="ent0003" data-entity-2="ent0005" data-link-type="dependency" data-source-line="40" id="lnk14"><path d="M149.49,210 C196.12,210 251.96,210 290.03,210" fill="none" id="earthquake_api-to-airflow" style="stroke:#444444;stroke-width:1.2;"/><polygon fill="#444444" points="296.03,210,287.03,206,291.03,210,287.03,214,296.03,210" style="stroke:#444444;stroke-width:1.2;"/><text fill="#000000" font-family="sans-serif" font-size="13" lengthAdjust="spacing" textLength="81.7324" x="182.2" y="206.0669">Extract Data</text></g><!--link airflow to s3--><g class="link" data-entity-1="ent0005" data-entity-2="ent0011" data-link-type="dependency" data-source-line="42" id="lnk15"><path d="M367.55,228.09 C377.66,232.97 388.83,238 399.38,242 C499.33,279.84 618.5665,308.2321 664.8465,318.6521" fill="none" id="airflow-to-s3" style="stroke:#444444;stroke-width:1.2;"/><polygon fill="#444444" points="670.7,319.97,662.7984,314.0908,665.8221,318.8717,661.0412,321.8954,670.7,319.97" style="stroke:#444444;stroke-width:1.2;"/><text fill="#000000" font-family="sans-serif" font-size="13" lengthAdjust="spacing" textLength="66.5869" x="450.38" y="238.0669">Load Data</text></g><!--link s3 to airflow--><g class="link" data-entity-1="ent0011" data-entity-2="ent0005" data-link-type="dependency" data-source-line="43" id="lnk16"><path d="M670.83,329.3 C622.69,342.2 489.51,370.59 399.38,319 C364.93,299.28 347.9355,259.5623 339.7255,234.0123" fill="none" id="s3-to-airflow" style="stroke:#444444;stroke-width:1.2;"/><polygon fill="#444444" points="337.89,228.3,336.8351,238.0922,339.4196,233.0603,344.4515,235.6448,337.89,228.3" style="stroke:#444444;stroke-width:1.2;"/><text fill="#000000" font-family="sans-serif" font-size="13" lengthAdjust="spacing" textLength="81.7324" x="442.88" y="315.0669">Extract Data</text></g><!--link airflow to ods--><g class="link" data-entity-1="ent0005" data-entity-2="ent0008" data-link-type="dependency" data-source-line="45" id="lnk17"><path d="M340.32,191.42 C350.23,169.75 369.93,134.97 399.38,120 C477.26,80.4 576.9785,92.4048 636.7785,104.9848" fill="none" id="airflow-to-ods" style="stroke:#444444;stroke-width:1.2;"/><polygon fill="#444444" points="642.65,106.22,634.6662,100.4529,637.7571,105.1907,633.0193,108.2816,642.65,106.22" style="stroke:#444444;stroke-width:1.2;"/><text fill="#000000" font-family="sans-serif" font-size="13" lengthAdjust="spacing" textLength="116.397" x="425.38" y="90.0669">Load Data to ODS</text></g><!--link ods to airflow--><g class="link" data-entity-1="ent0008" data-entity-2="ent0005" data-link-type="dependency" data-source-line="46" id="lnk18"><path d="M642.59,128.65 C619.94,133.76 592.27,139.87 567.38,145 C492.94,160.35 471.43,152.79 399.38,177 C388.13,180.78 381.7173,183.4083 371.2673,188.6783" fill="none" id="ods-to-airflow" style="stroke:#444444;stroke-width:1.2;"/><polygon fill="#444444" points="365.91,191.38,375.7471,190.899,370.3744,189.1286,372.1448,183.7559,365.91,191.38" style="stroke:#444444;stroke-width:1.2;"/><text fill="#000000" font-family="sans-serif" font-size="13" lengthAdjust="spacing" textLength="81.7324" x="442.88" y="141.0669">Extract Data</text></g><!--link airflow to dm--><g class="link" data-entity-1="ent0005" data-entity-2="ent0009" data-link-type="dependency" data-source-line="47" id="lnk19"><path d="M367.69,211.87 C377.9,212.33 389.08,212.77 399.38,213 C474.03,214.68 493.07,220.26 567.38,213 C585.59,211.22 599.2333,209.1403 617.1933,205.6003" fill="none" id="airflow-to-dm" style="stroke:#444444;stroke-width:1.2;"/><polygon fill="#444444" points="623.08,204.44,613.4764,202.256,618.1744,205.4069,615.0234,210.1049,623.08,204.44" style="stroke:#444444;stroke-width:1.2;"/><text fill="#000000" font-family="sans-serif" font-size="13" lengthAdjust="spacing" textLength="166.1118" x="400.38" y="194.0669">Transform and Load Data</text><text fill="#000000" font-family="sans-serif" font-size="13" lengthAdjust="spacing" textLength="38.4097" x="464.2311" y="209.1997">to DM</text></g><!--link dm to metabase--><g class="link" data-entity-1="ent0009" data-entity-2="ent0013" data-link-type="dependency" data-source-line="49" id="lnk20"><path d="M757.06,189 C812.58,189 884.35,189 932.41,189" fill="none" id="dm-to-metabase" style="stroke:#444444;stroke-width:1.2;"/><polygon fill="#444444" points="938.41,189,929.41,185,933.41,189,929.41,193,938.41,189" style="stroke:#444444;stroke-width:1.2;"/><text fill="#000000" font-family="sans-serif" font-size="13" lengthAdjust="spacing" textLength="92.7012" x="813.65" y="185.0669">Visualize Data</text></g><?plantuml-src bPDHQzim4CVVzIcEzBcZQmefUHWujiK62MkRiBqKnYLMR15RoauAwLRwtNUo6qTDmzZq9DtT_tVtF-DQhJru2wJBoaEXIQsyjaO8jz5cYuGDB76rASdkJ97QsXBiA-rLb7SL5dQlJGbhh5sS2J0qPQtWMG2VYQL2KKTPreoDeejAhpP6EGSVs-X3rv2C8hWIBn5roq8i_vSP4n8Yk-ya5pVjEKr6oW_NGXnQ3fAxBmEua4cMvhUl0nnD3d8aN_tSuKP1MuWEL1_wWLlDqXjv9ILFSsJcYoapyqGEvVLxPg99rdRVmb3JckzdATdtpqp9HlcjbA-KFdTddIz9pU-dZwQnXQg31pxPmSD9pw_P7ARuIr7RrHQkxtYcE4EFC6ERaQHetYXUtamwzvRuqiqmIjFtdkV3bkA6PvrEmYT8iyceDnf9PyhZ19rg0Gq_blo8CISVvFBoKx_MCUHFdd3b8NWIuX0FDJpB6AOMYox7ptzLXlL5ql2pyNv52Fy54HDucsDO41gtjjG0ckA8UpJCosP2S56exIsFuPjsEwprRzKM_W40?></g></svg>